<svg version="1.0" xmlns="http://www.w3.org/2000/svg"
 height="1em" width="1em" viewBox="0 0 512.000000 512.000000"
 preserveAspectRatio="xMidYMid meet">

<g transform="translate(0.000000,512.000000) scale(0.100000,-0.100000)"
fill="#000000" stroke="none">
<path d="M2365 5114 c-362 -37 -633 -112 -930 -258 -280 -138 -492 -293 -715
-522 -388 -400 -619 -880 -702 -1459 -17 -118 -17 -512 0 -630 85 -593 328
-1088 733 -1494 641 -641 1557 -893 2439 -671 1164 292 1973 1375 1927 2575
-26 654 -286 1252 -743 1709 -209 210 -415 357 -689 492 -248 122 -484 196
-765 239 -101 15 -468 28 -555 19z m285 -148 c0 -2 -16 -30 -35 -62 -20 -33
-43 -84 -52 -114 -18 -64 -29 -80 -53 -80 -29 0 -77 -47 -90 -86 -12 -34 -14
-36 -49 -31 -60 8 -91 25 -109 59 -16 31 -53 71 -137 148 -47 43 -90 99 -82
106 11 11 235 45 352 53 138 9 255 13 255 7z m322 -36 c112 -19 334 -76 398
-102 l33 -14 -2 -84 c-1 -50 5 -108 14 -140 8 -30 15 -68 15 -84 0 -15 -28
-84 -62 -153 l-62 -125 -3 -121 c-3 -120 -4 -123 -37 -172 -19 -27 -38 -59
-44 -70 -36 -74 -15 -167 54 -244 76 -84 142 -107 379 -130 92 -10 109 -15
215 -68 97 -48 125 -57 181 -61 57 -4 75 0 137 27 82 36 109 38 161 12 79 -41
95 -101 57 -220 -30 -95 -32 -122 -11 -180 l15 -42 -54 -24 c-29 -13 -93 -36
-142 -50 -252 -76 -379 -189 -429 -380 -33 -128 -14 -226 84 -434 81 -172 85
-186 106 -356 38 -314 136 -509 353 -698 l43 -38 -46 -54 c-49 -58 -171 -172
-269 -251 -114 -92 -283 -197 -441 -274 -301 -148 -560 -216 -912 -240 l-153
-11 -152 51 c-91 30 -220 83 -318 132 l-164 81 50 22 c64 28 101 76 114 145 5
29 10 124 10 211 l0 157 94 87 c114 105 126 129 126 259 0 93 0 93 35 129 25
25 35 45 35 67 0 37 -39 80 -72 80 -33 0 -96 -48 -124 -95 -21 -37 -24 -54
-24 -145 l0 -103 -99 -94 c-65 -62 -105 -107 -115 -134 -13 -31 -16 -78 -16
-224 0 -217 7 -205 -124 -205 -117 0 -116 -1 -116 163 l0 132 -65 134 -65 133
0 237 c0 245 -7 305 -40 351 -11 15 -122 100 -247 190 -125 90 -234 170 -240
178 -9 11 -13 63 -13 178 0 155 1 165 25 210 27 51 34 137 14 177 -6 12 -106
118 -223 235 l-211 212 -5 168 c-6 195 -2 186 -129 301 l-82 73 42 77 c102
186 256 389 414 546 156 156 310 272 513 390 l83 48 37 -35 c20 -19 71 -62
112 -94 41 -32 78 -63 82 -69 4 -5 8 -68 8 -138 0 -106 3 -134 19 -165 39 -77
104 -112 204 -112 36 0 68 -5 75 -12 13 -13 16 -116 4 -134 -4 -7 -36 -33 -72
-60 -36 -26 -70 -55 -77 -63 -20 -26 -15 -70 12 -96 41 -42 65 -35 180 51 99
74 115 107 115 227 0 106 -9 139 -48 180 -42 44 -80 60 -167 66 l-80 6 -6 142
c-6 128 -9 147 -32 186 l-26 43 84 52 c83 50 83 51 101 30 10 -11 40 -36 67
-55 26 -19 56 -52 67 -73 31 -60 90 -104 176 -130 123 -36 213 -11 252 72 11
24 29 42 54 53 48 21 76 61 108 155 30 90 108 219 132 220 9 0 67 -9 130 -20z
m859 -326 c154 -93 276 -190 425 -339 205 -204 335 -384 454 -630 132 -270
204 -509 242 -795 18 -142 15 -471 -6 -610 -59 -397 -204 -758 -425 -1064
l-51 -70 -98 100 c-154 156 -206 274 -241 547 -23 177 -32 206 -116 387 -35
74 -68 153 -74 175 -37 136 24 291 142 359 23 14 110 48 192 76 165 57 220 84
258 130 36 42 42 81 21 145 -16 54 -16 57 6 133 41 135 25 240 -51 326 -87 99
-220 126 -349 71 -36 -15 -74 -29 -85 -32 -12 -2 -66 18 -130 50 -146 71 -157
75 -322 91 -164 16 -215 36 -248 98 l-19 37 32 45 c61 85 72 120 72 242 l0
111 55 111 c76 151 83 193 56 319 -31 140 -29 142 79 88 48 -24 130 -70 181
-101z m-2934 -2076 c-27 -53 -27 -56 -27 -259 0 -278 -20 -245 285 -465 l240
-172 5 -269 5 -269 68 -140 c64 -131 68 -142 65 -199 l-3 -60 -122 123 c-398
401 -647 931 -703 1501 -11 115 -13 375 -3 434 l6 39 105 -105 106 -106 -27
-53z"/>
<path d="M1610 3643 c-8 -4 -39 -25 -69 -47 l-54 -41 -196 -5 c-127 -3 -203
-9 -217 -17 -32 -18 -83 -80 -91 -111 -5 -15 -8 -90 -8 -167 0 -117 3 -146 19
-175 25 -46 229 -255 285 -291 l45 -29 179 0 c104 0 186 -4 198 -10 16 -9 19
-22 19 -83 0 -85 22 -140 69 -180 45 -38 90 -47 227 -47 130 0 144 -5 144 -52
0 -33 29 -95 57 -120 44 -40 86 -48 257 -48 155 0 166 -1 176 -20 6 -12 9 -78
8 -172 l-3 -152 -70 -58 c-38 -33 -74 -70 -79 -83 -21 -53 33 -115 87 -101 27
7 162 120 191 159 19 26 21 44 24 232 4 231 -3 257 -75 312 -36 28 -38 28
-220 33 -196 5 -202 7 -203 57 0 34 -19 75 -48 106 -51 55 -76 62 -232 67
l-145 5 -6 80 c-10 121 -34 167 -111 206 -33 17 -60 19 -220 19 l-182 0 -118
118 -118 118 0 115 c0 76 4 119 12 127 8 8 65 12 190 12 129 0 188 4 211 14
56 24 156 104 163 131 10 39 -4 73 -36 90 -31 16 -37 17 -60 8z"/>
</g>
</svg>
